Coordinates
datacolumns 6
datarows 77
range 0 0.76
inDegrees=yes
Units are S.I. units (second, meters, Newtons, ...)
If the header above contains a line with 'inDegrees', this indicates whether rotational values are in degrees (yes) or radians (no).
endheader
time	foot_tx	hip_flexion_r	knee_angle_r	ankle_angle_r	lumbar
0	0.2847395	64.65148914	-58.11655827	-5.8443769	-6.05062678
0.01	0.28474361	64.68501242	-58.11841632	-5.8467808	-6.07988445
0.02	0.28474485	64.72179002	-58.12048946	-5.8493257	-6.11384116
0.03	0.28473987	64.68470013	-58.12464586	-5.84636909	-6.24788137
0.04	0.28473717	64.73316065	-58.12519307	-5.85082871	-6.29133334
0.05	0.28475212	64.69281788	-58.1200905	-5.85490868	-6.4550652
0.06	0.28473485	64.75598825	-58.12072955	-5.8598381	-6.51212678
0.07	0.28473436	64.7010495	-58.11512196	-5.86291164	-6.72894262
0.08	0.28472926	64.70042931	-58.10846452	-5.86954019	-6.89990451
0.09	0.28472536	64.70119847	-58.09907723	-5.87803171	-7.09057844
0.1	0.28471439	64.70537283	-58.08820553	-5.88708599	-7.30135364
0.11	0.28470579	64.71430719	-58.0743908	-5.89817179	-7.53080938
0.12	0.28468962	64.73082096	-58.05884243	-5.90989168	-7.77844259
0.13	0.28467311	64.75763118	-58.04083478	-5.92314919	-8.04104222
0.14	0.28465532	64.79829412	-58.02082323	-5.93761224	-8.31540312
0.15	0.28464368	64.84852345	-57.99550571	-5.95512601	-8.60776129
0.16	0.28460397	64.93005261	-57.97586885	-5.96810342	-8.89397338
0.17	0.28457609	65.02905433	-57.95179643	-5.98394564	-9.18876087
0.18	0.28454423	65.15240164	-57.92679462	-5.9996132	-9.48575482
0.19	0.28450928	65.30353465	-57.90198023	-6.01442199	-9.78086041
0.2	0.28447287	65.483974	-57.87719945	-6.0283196	-10.07271535
0.21	0.28443948	65.69557692	-57.85228853	-6.04149666	-10.35917804
0.22	0.28440382	65.97068456	-57.83043415	-6.05340306	-10.6018311
0.23	0.28434039	66.26769669	-57.81803629	-6.05582407	-10.85305567
0.24	0.2843343	66.57014159	-57.78814084	-6.06863602	-11.13075816
0.25	0.28428662	66.90221808	-57.77634833	-6.06605429	-11.40887284
0.26	0.28425271	67.25338049	-57.76260202	-6.06235229	-11.70031061
0.27	0.28422885	67.62497805	-57.74804688	-6.05647696	-12.00491889
0.28	0.28420587	68.12752279	-57.73540463	-6.05268435	-12.19111213
0.29	0.28418079	68.61052016	-57.72421223	-6.04167589	-12.44248891
0.3	0.28416162	69.1294032	-57.71362274	-6.02781582	-12.69247714
0.31	0.28414243	69.68367812	-57.70177699	-6.01128603	-12.94469927
0.32	0.28412701	70.27433056	-57.68801545	-5.99266612	-13.1985885
0.33	0.28411376	70.89935367	-57.6712657	-5.97195555	-13.45811916
0.34	0.28409146	71.56780915	-57.65465412	-5.94682085	-13.71342524
0.35	0.28406566	72.27593288	-57.6327924	-5.91988815	-13.97043185
0.36	0.2840474	73.02540304	-57.60257025	-5.89328896	-14.22583584
0.37	0.28400639	73.83284698	-57.57543511	-5.85876109	-14.45884
0.38	0.28396076	74.69134266	-57.54348527	-5.8207022	-14.67622405
0.39	0.28392638	75.60141753	-57.4997013	-5.78312083	-14.87485649
0.4	0.28386446	76.58362759	-57.45913402	-5.73497282	-15.02702216
0.41	0.28379152	77.62556729	-57.41637974	-5.67841369	-15.14314633
0.42	0.28370424	78.7418832	-57.37620225	-5.60994993	-15.19943553
0.43	0.28360609	79.92992909	-57.33797804	-5.52854644	-15.19333168
0.44	0.28349951	81.18966896	-57.30310849	-5.43204935	-15.11798336
0.45	0.28338794	82.51781839	-57.2730212	-5.31816632	-14.96999373
0.46	0.28327265	83.9076939	-57.25064289	-5.18361106	-14.74961278
0.47	0.28316198	85.35237574	-57.2349426	-5.02795752	-14.45705156
0.48	0.28306067	86.84474397	-57.23002181	-4.84780084	-14.0925558
0.49	0.28297279	88.36377728	-57.23665861	-4.64152142	-13.67394331
0.5	0.28290276	89.89362166	-57.25844033	-4.40657686	-13.21287473
0.51	0.28285988	91.42868582	-57.29489854	-4.14371265	-12.70838625
0.52	0.28284791	92.94689218	-57.35023331	-3.85089687	-12.18079159
0.53	0.28286771	94.43584979	-57.42842702	-3.52697713	-11.63875271
0.54	0.28292229	95.87552155	-57.5347825	-3.17037039	-11.1015306
0.55	0.28301514	97.25573723	-57.67212795	-2.78210163	-10.57621903
0.56	0.28314601	98.56573906	-57.84569089	-2.36154216	-10.07106955
0.57	0.28331355	99.79293432	-58.06029855	-1.9085929	-9.59734829
0.58	0.28351864	100.9327204	-58.31856442	-1.42477599	-9.1559883
0.59	0.28376015	101.9770077	-58.62321268	-0.91131154	-8.75282613
0.6	0.28403614	102.9132303	-58.97820901	-0.36815243	-8.39985643
0.61	0.28434575	103.7486083	-59.37710157	0.19904829	-8.08204843
0.62	0.28468776	104.4685409	-59.82298164	0.79042626	-7.81430004
0.63	0.28505901	105.0751139	-60.30740925	1.40077604	-7.58908106
0.64	0.28545726	105.5658926	-60.82277223	2.02574538	-7.40506652
0.65	0.2858825	105.9392885	-61.36029314	2.66122374	-7.25839326
0.66	0.28632793	106.1902636	-61.91161616	3.30361223	-7.15233457
0.67	0.28679205	106.301913	-62.46494708	3.94882746	-7.10481144
0.68	0.28726853	106.3436896	-63.002169	4.5864794	-7.02100371
0.69	0.28776124	106.2215774	-63.51857478	5.21839249	-7.02494126
0.7	0.28825181	105.9936614	-63.99966047	5.8382037	-7.0339433
0.71	0.28875029	105.6506801	-64.43293418	6.43977875	-7.06227824
0.72	0.28924403	105.1893152	-64.80882454	7.02068053	-7.11395717
0.73	0.28972979	104.61854	-65.11743772	7.57626565	-7.17795384
0.74	0.29020906	103.940767	-65.35290019	8.10368171	-7.25192034
0.75	0.29067187	103.158382	-65.50659523	8.59981459	-7.33546265
0.76	0.29112373	102.2686635	-65.57471226	9.06199044	-7.43417865
